<?xml version="1.0" encoding="UTF-8"?>
<svg id="Layer_1" data-name="Layer 1" xmlns="http://www.w3.org/2000/svg" viewBox="0 0 4008.08 2069.65">
  <defs>
    <style>
      .cls-1 {
        fill: #034761;
      }
    </style>
  </defs>
  <polygon class="cls-1" points="118.15 2066.33 113.15 2066.28 114.02 1975.17 260.83 1976.03 260.8 1981.03 118.97 1980.2 118.15 2066.33"/>
  <g>
    <polygon class="cls-1" points="264.16 2063.77 259.16 2063.77 259.16 1885.7 357.9 1886.57 357.85 1891.57 264.16 1890.75 264.16 2063.77"/>
    <polygon class="cls-1" points="348.56 1889.1 343.56 1889.04 347.79 1565.88 373.8 1527.8 403.4 1566.65 403.42 1567.48 405.95 1743.02 400.95 1743.1 398.43 1568.37 374.02 1536.34 352.77 1567.46 348.56 1889.1"/>
    <rect class="cls-1" x="335.93" y="1741.83" width="76.81" height="5" transform="translate(-19.06 4.2) rotate(-.63)"/>
    <rect class="cls-1" x="401.16" y="1743.06" width="5" height="27.22" transform="translate(-27.18 6.47) rotate(-.89)"/>
    <rect class="cls-1" x="362.09" y="1517.54" width="24.06" height="5" transform="translate(-1152.26 1867.38) rotate(-88.99)"/>
    <rect class="cls-1" x="371.46" y="1558.54" width="5" height="68.69" transform="translate(-1223.94 1944.8) rotate(-89.21)"/>
    <rect class="cls-1" x="339.94" y="1616.18" width="68.37" height="5" transform="translate(-14.84 3.5) rotate(-.53)"/>
    <rect class="cls-1" x="420.36" y="1733.88" width="5" height="25"/>
    <g>
      <polygon class="cls-1" points="389.34 1836.77 388.7 1781.71 422.86 1755.75 459.56 1783.61 458.91 1832.98 453.91 1832.91 454.53 1786.07 422.86 1762.02 393.73 1784.17 394.34 1836.71 389.34 1836.77"/>
      <polygon class="cls-1" points="471.57 1850.03 466.57 1850.03 466.57 1836.15 380.42 1838.54 380.42 1848.77 375.42 1848.77 375.42 1833.68 471.57 1831.01 471.57 1850.03"/>
      <rect class="cls-1" x="392.48" y="1809.24" width="61.72" height="5"/>
      <g>
        <polygon class="cls-1" points="4008.08 2069.65 58.26 2067.75 .05 2068.38 0 2063.38 58.23 2062.75 4008.08 2064.65 4008.08 2069.65"/>
        <polygon class="cls-1" points="359.53 2063.78 354.53 2063.76 355.38 1846.9 805.95 1847.75 808.53 1997.9 803.53 1997.98 801.04 1852.74 360.36 1851.91 359.53 2063.78"/>
        <path class="cls-1" d="M511.82,1850.05l-3.22-3.83,14.93-12.54v-115.66l.33-.58c1.06-1.84,26.34-45.19,56.47-46.82h.16s.16,0,.16,0c1.29,.09,31.99,2.83,58.62,47.74l.35,.59-.32,112.92,14.42,13.82-3.46,3.61-15.96-15.3,.32-113.68c-24.22-40.44-52-44.45-54.2-44.7-25.62,1.57-48.85,38.71-51.88,43.75v116.63l-16.72,14.04Z"/>
        <rect class="cls-1" x="577.66" y="1626.59" width="5" height="46.53" transform="translate(-22.38 8.04) rotate(-.78)"/>
        <rect class="cls-1" x="526.04" y="1776.32" width="110.14" height="5"/>
        <rect class="cls-1" x="542.68" y="1790.85" width="5" height="29.44" transform="translate(-19.41 5.97) rotate(-.62)"/>
        <rect class="cls-1" x="579.64" y="1792.12" width="5" height="28.33" transform="translate(-10.08 3.28) rotate(-.32)"/>
        <rect class="cls-1" x="616.43" y="1792.75" width="5" height="26.59" transform="translate(-21.45 7.49) rotate(-.68)"/>
        <polygon class="cls-1" points="779.58 1849.14 779.31 1836.69 697.23 1836.1 697.23 1846.87 692.23 1846.87 692.23 1831.06 784.21 1831.73 784.58 1849.03 779.58 1849.14"/>
        <path class="cls-1" d="M704.25,1832.96l-.32-45.51,.25-.52c.5-1.05,12.47-25.84,33.04-30.48l.66-.15,.65,.21c.93,.3,22.94,7.51,34.05,28.43l.29,.54,.32,47.14-5,.03-.31-45.9c-9.25-16.87-26.71-23.96-30.23-25.25-16.36,4.16-26.98,23.73-28.7,27.09l.31,44.34-5,.04Z"/>
        <rect class="cls-1" x="724.11" y="1744.04" width="24.05" height="5" transform="translate(-1013.56 2475.16) rotate(-89.75)"/>
        <rect class="cls-1" x="735.27" y="1781.83" width="5" height="60.13" transform="translate(-1078 2540.09) rotate(-89.7)"/>
        <polygon class="cls-1" points="424.09 2063.99 419.09 2063.97 419.74 1881.1 422.21 1881.08 735.46 1879.17 739.32 2024.67 734.32 2024.81 730.59 1884.2 424.72 1886.07 424.09 2063.99"/>
        <polygon class="cls-1" points="536.51 2065.6 534.94 1941.99 512.26 1921.61 488.02 1939.3 487.08 2064.95 482.08 2064.91 483.04 1936.74 512.59 1915.18 539.92 1939.74 541.51 2065.53 536.51 2065.6"/>
        <polygon class="cls-1" points="603.93 2063.7 602.36 1940.1 579.68 1919.71 555.43 1937.4 554.49 2063.05 549.49 2063.02 550.45 1934.84 580 1913.28 607.33 1937.84 608.93 2063.64 603.93 2063.7"/>
        <polygon class="cls-1" points="623.17 2064.63 618.17 2064.6 618.81 1939.76 645.26 1915.74 673.79 1938.71 675.07 2035.78 670.07 2035.85 668.82 1941.13 645.45 1922.32 623.8 1941.98 623.17 2064.63"/>
        <path class="cls-1" d="M1155.4,2066.31h-5s.4-365.43,.4-365.43c-4.98,8.71-14.45,21.52-31.92,40.87-20.47,22.68-49.46,51.58-86.18,85.9-62.46,58.39-126.52,113-127.16,113.54-41.47,38.19-106.08,63.17-152.97,77.4-50.7,15.38-92.19,21.85-92.6,21.92l-.76-4.94c.41-.06,41.61-6.49,91.98-21.78,46.36-14.07,110.2-38.74,151.04-76.33,.71-.61,64.69-55.15,127.07-113.46,99.48-93,119.79-125.08,121.52-136.11v-3.05s4.97-.42,4.97-.42c.18,1.05,.24,2.3,.03,3.87l-.42,378.04Z"/>
        <polygon class="cls-1" points="901.43 1939.31 901.03 1892.4 805.59 1891.99 805.62 1886.99 905.99 1887.42 906.43 1939.26 901.43 1939.31"/>
        <rect class="cls-1" x="784.54" y="1704.03" width="5" height="75.11" transform="translate(-958.94 2518.83) rotate(-89.68)"/>
        <rect class="cls-1" x="814.92" y="1744.74" width="5" height="143.91" transform="translate(-21.25 9.71) rotate(-.67)"/>
        <rect class="cls-1" x="745.47" y="1751.95" width="23.64" height="5" transform="translate(-1010.49 2480.11) rotate(-88.97)"/>
        <polygon class="cls-1" points="813.59 1740.96 808.59 1740.94 809.01 1562.9 786.8 1535.04 765.06 1567.84 765.48 1739.68 760.48 1739.69 760.06 1566.34 786.43 1526.56 814.01 1561.15 813.59 1740.96"/>
        <rect class="cls-1" x="784.11" y="1556.75" width="5" height="71.75" transform="translate(-819.63 2351.02) rotate(-88.99)"/>
        <rect class="cls-1" x="783.27" y="1583.75" width="5" height="70.06" transform="translate(-846.94 2375.19) rotate(-88.96)"/>
        <rect class="cls-1" x="775.59" y="1517.25" width="22.1" height="5" transform="translate(-734.96 2302.8) rotate(-89.86)"/>
        <rect class="cls-1" x="660.1" y="2038.35" width="5" height="25.32" transform="translate(-25.58 8.44) rotate(-.72)"/>
        <rect class="cls-1" x="1092.55" y="1798.16" width="34.84" height="5" transform="translate(-64.68 41.51) rotate(-2.08)"/>
        <rect class="cls-1" x="1060.91" y="1834.88" width="66.46" height="5"/>
        <rect class="cls-1" x="1073.28" y="1820.91" width="5" height="104.46" transform="translate(-816.61 2914.69) rotate(-88.96)"/>
        <rect class="cls-1" x="1050.81" y="1838.64" width="5" height="143.06" transform="translate(-866.1 2946.54) rotate(-89.49)"/>
        <path class="cls-1" d="M1110.9,1949.38c-1.67,0-167.13-.63-169.63-.63v-5c2.51,0,167.98,.63,169.65,.63l-.02,5Z"/>
        <rect class="cls-1" x="976.12" y="1891.18" width="5" height="181.04" transform="translate(-1009.87 2946.43) rotate(-89.6)"/>
        <path class="cls-1" d="M1027.35,2020.28c-2,0-200.05-.63-202.55-.63v-5c2.51,0,200.56,.63,202.56,.63l-.02,5Z"/>
        <path class="cls-1" d="M1215.32,2064.62h-5v-357.89l2.58,.08c6.85,.21,110.29,.21,111.33,.21h1.05l46.29,46.92c6.83,.55,49.67,4.26,99.15,14.45,72.25,14.87,123.57,35.71,152.55,61.94,7.24,4.74,128.78,84.76,158.22,133.62l-4.28,2.58c-29.11-48.32-155.57-131.29-156.84-132.12l-.31-.24c-67.58-61.38-247.98-75.18-249.8-75.32l-.94-.07-46.13-46.77c-10.75,0-91.35,0-107.86-.17v352.78Z"/>
        <rect class="cls-1" x="1154.16" y="1714.4" width="58.24" height="5" transform="translate(-24.7 17.29) rotate(-.83)"/>
        <rect class="cls-1" x="1155.43" y="1742.67" width="58.24" height="5" transform="translate(-25.11 17.31) rotate(-.83)"/>
        <rect class="cls-1" x="1154.59" y="1770.94" width="58.24" height="5" transform="translate(-25.48 17.28) rotate(-.83)"/>
        <rect class="cls-1" x="1152.9" y="1797.95" width="58.24" height="5" transform="translate(-25.91 17.28) rotate(-.83)"/>
        <rect class="cls-1" x="1152.9" y="1824.11" width="58.24" height="5" transform="translate(-26.29 17.28) rotate(-.83)"/>
        <rect class="cls-1" x="1155.85" y="1851.54" width="58.24" height="5" transform="translate(-26.68 17.33) rotate(-.83)"/>
        <rect class="cls-1" x="1155.01" y="1878.97" width="58.24" height="5" transform="translate(-27.04 17.29) rotate(-.83)"/>
        <rect class="cls-1" x="1155.01" y="1905.98" width="58.24" height="5" transform="translate(-27.43 17.3) rotate(-.83)"/>
        <rect class="cls-1" x="1156.27" y="1932.57" width="58.24" height="5" transform="translate(-27.82 17.32) rotate(-.83)"/>
        <rect class="cls-1" x="1154.16" y="1959.99" width="58.24" height="5" transform="translate(-28.25 17.31) rotate(-.83)"/>
        <rect class="cls-1" x="1154.59" y="1987.42" width="58.24" height="5" transform="translate(-28.61 17.3) rotate(-.83)"/>
        <rect class="cls-1" x="1155.01" y="2014.85" width="58.24" height="5" transform="translate(-29 17.31) rotate(-.83)"/>
        <rect class="cls-1" x="1286.28" y="1714.26" width="5" height="100.01" transform="translate(-483.6 3041.86) rotate(-89.64)"/>
        <rect class="cls-1" x="1358.76" y="1679.76" width="5" height="242.43" transform="translate(-443.27 3157.52) rotate(-89.85)"/>
        <rect class="cls-1" x="1241.31" y="1834.88" width="335.48" height="5"/>
        <rect class="cls-1" x="1437.57" y="1674.38" width="5" height="397.51" transform="translate(-435.37 3310.22) rotate(-89.91)"/>
        <rect class="cls-1" x="1239.41" y="1907.35" width="447.52" height="5" transform="translate(-2.63 2.02) rotate(-.08)"/>
        <rect class="cls-1" x="1240.04" y="1944.38" width="481.7" height="5"/>
        <rect class="cls-1" x="1386.68" y="1980.67" width="362.07" height="5" transform="translate(-4.64 3.67) rotate(-.13)"/>
        <rect class="cls-1" x="1458.42" y="2014.01" width="315.65" height="5"/>
        <polygon class="cls-1" points="1624.23 1832.31 1619.23 1832.31 1619.23 1254.03 1585.04 1253.71 1585.67 1102.69 1563.52 1102.06 1564.15 936.61 1543.29 936.61 1542.65 803.05 1511.65 803.05 1511.02 744.12 1490.73 743.61 1492 801.24 1457.12 799.98 1457.12 933.44 1436.24 933.44 1436.24 1101.89 1413.45 1101.25 1413.45 1252.51 1378.64 1251.88 1379.9 1755.71 1374.9 1755.73 1373.63 1246.79 1408.45 1247.42 1408.45 1096.11 1431.24 1096.75 1431.24 928.44 1452.12 928.44 1452.12 794.79 1486.88 796.05 1485.62 738.48 1515.97 739.24 1516.6 798.05 1547.63 798.05 1548.26 931.61 1569.17 931.61 1568.54 1097.2 1590.69 1097.84 1590.06 1248.75 1624.23 1249.07 1624.23 1832.31"/>
        <rect class="cls-1" x="1012.8" y="1300.64" width="935.56" height="5" transform="translate(171.68 2778.62) rotate(-89.78)"/>
        <rect class="cls-1" x="1045.08" y="1305.7" width="944.41" height="5" transform="translate(207.3 2823.95) rotate(-89.93)"/>
        <rect class="cls-1" x="1438.2" y="1134.76" width="5" height="624.76"/>
        <rect class="cls-1" x="1553.09" y="1140.46" width="5" height="653.24" transform="translate(-4.26 4.53) rotate(-.17)"/>
        <rect class="cls-1" x="1402.12" y="1284.78" width="5" height="472.84"/>
        <rect class="cls-1" x="1589.17" y="1284.78" width="5" height="522.21" transform="translate(-5.61 5.8) rotate(-.21)"/>
        <path class="cls-1" d="M1846.62,2028.34l-5-.03,1.65-274.56c-5.39,5.85-15.07,16.22-25.22,26.51-23.8,24.12-32.58,30.04-36.41,31.5l.84,213.18-5,.02-.85-217.72h2.51c.89,0,6.77-1.5,35.37-30.5,15.18-15.39,29.31-30.98,29.45-31.14l4.39-4.85-1.73,287.59Z"/>
        <polygon class="cls-1" points="1748.72 2063.83 1743.72 2063.71 1744.62 2026.66 2130.24 2028.36 2130.22 2033.36 1749.5 2031.68 1748.72 2063.83"/>
        <polygon class="cls-1" points="2178.09 2064.62 2173.09 2064.61 2173.72 1834.82 2130.23 1835.01 2132.73 2063.74 2127.73 2063.8 2125.17 1830.03 2178.73 1829.8 2178.09 2064.62"/>
        <polygon class="cls-1" points="1892.2 2027.49 1887.2 2027.48 1888.87 1367.4 1816.25 1436.08 1818.77 1777.64 1813.77 1777.68 1811.23 1433.94 1893.9 1355.76 1892.2 2027.49"/>
        <polygon class="cls-1" points="1923.49 2024.11 1922.65 1011.41 1841.56 1091.71 1841.56 1406.31 1836.56 1406.31 1836.56 1089.62 1927.64 999.43 1928.49 2024.1 1923.49 2024.11"/>
        <polygon class="cls-1" points="2006.2 1165.79 2005.35 830.14 1977.52 804.83 1975.83 686.64 1924.31 637.54 1871.1 689.14 1873.63 1056.89 1868.63 1056.92 1866.09 687.04 1924.28 630.61 1980.8 684.47 1982.49 802.59 2010.35 827.92 2010.35 829.03 2011.2 1165.77 2006.2 1165.79"/>
        <polygon class="cls-1" points="1950.92 2025.38 1948.79 1106.56 2035.67 1193.44 2036.51 1495.58 2065.2 1524.27 2066.89 1769.91 2098.97 1803.67 2098.97 2024.11 2093.97 2024.11 2093.97 1805.67 2061.91 1771.92 2060.22 1526.36 2031.52 1497.66 2030.67 1195.51 1953.82 1118.66 1955.92 2025.37 1950.92 2025.38"/>
        <polygon class="cls-1" points="2030.04 2029.21 2025.52 1733.95 2080.75 1784.26 2077.38 1787.95 2030.7 1745.42 2035.04 2029.13 2030.04 2029.21"/>
        <polygon class="cls-1" points="1977.5 2026.64 1975.8 1436.68 2035.76 1494.82 2032.28 1498.41 1980.83 1448.53 1982.5 2026.63 1977.5 2026.64"/>
        <polygon class="cls-1" points="1979.34 680.28 1974.34 680.28 1974.34 511.94 1958.13 500.6 1898.94 559.79 1898.31 658.14 1893.31 658.11 1893.95 557.71 1957.56 494.1 1979.34 509.34 1979.34 680.28"/>
        <polygon class="cls-1" points="1905.91 547.99 1900.91 547.99 1900.91 465.3 1966.68 399.53 1966.68 497.35 1961.68 497.35 1961.68 411.6 1905.91 467.37 1905.91 547.99"/>
        <polygon class="cls-1" points="1913.57 449.27 1912.29 317.24 1958.48 267.73 1957.81 391.65 1952.81 391.63 1953.41 280.5 1917.31 319.19 1918.57 449.22 1913.57 449.27"/>
        <rect class="cls-1" x="1938.41" y="341.46" width="5" height="70.29" transform="translate(274.54 1440.64) rotate(-43.54)"/>
        <polygon class="cls-1" points="1919.9 305.57 1919.26 189.99 1934.69 173.86 1948.32 174.71 1948.32 211.69 1955.93 211.05 1955.71 266.76 1958.48 266.76 1958.48 271.76 1950.7 271.76 1950.91 216.49 1943.32 217.12 1943.32 179.41 1936.7 178.99 1924.27 191.98 1924.9 305.54 1919.9 305.57"/>
        <polygon class="cls-1" points="1930.87 177.71 1930.32 119.1 1947.07 119.56 1946.74 174.23 1941.74 174.19 1942.04 124.42 1935.37 124.24 1935.87 177.67 1930.87 177.71"/>
        <polygon class="cls-1" points="1941.42 119.6 1937.69 52.56 1935.03 119.56 1930.03 119.36 1934.78 .04 1939.77 0 1946.42 119.32 1941.42 119.6"/>
        <polygon class="cls-1" points="2157.27 2064.2 2156.85 1857.95 2152.23 1852.76 2145.81 1857.43 2145.18 2063.99 2140.18 2063.98 2140.81 1854.88 2152.96 1846.05 2161.84 1856.05 2162.27 2064.19 2157.27 2064.2"/>
        <path class="cls-1" d="M2133.77,1814.99l-1.86-1.06h-.63v-.36l-1.85-1.06,1.85-3.24v-.34h.2l22.96-40.1,18.55,45.1h-38.62l-.61,1.06Zm3.47-6.06h28.29l-11.83-28.75-16.46,28.75Z"/>
        <rect class="cls-1" x="2163.39" y="1810.79" width="5" height="19.42" transform="translate(-39.05 47.49) rotate(-1.25)"/>
        <rect class="cls-1" x="2133.95" y="1812.9" width="5" height="18.57" transform="translate(-20.57 24.39) rotate(-.65)"/>
        <rect class="cls-1" x="2269.31" y="1767.74" width="5" height="191.18" transform="translate(378.55 4110.25) rotate(-89.24)"/>
        <polygon class="cls-1" points="2438.25 2064.62 2433.25 2064.61 2434.09 1739.23 2369.9 1739.23 2371.15 2062.07 2366.15 2062.09 2364.88 1734.23 2439.1 1734.23 2439.09 1736.74 2438.25 2064.62"/>
        <rect class="cls-1" x="2175.8" y="1979.41" width="191.16" height="5"/>
        <polygon class="cls-1" points="2211.07 1858.27 2209.17 794.27 2414.2 792.65 2414.2 1674.7 2409.2 1674.7 2409.2 797.69 2214.18 799.23 2216.07 1858.26 2211.07 1858.27"/>
        <path class="cls-1" d="M2230.95,795.5l-5-.03,.09-13.13c-6.39-.33-19.68-.8-19.83-.81l-7.36-.26,60.95-43.39-.34-20.53h44.05l.32-52.59,20.79,.42,.32,50.84,33.81-.95,.67,22.73,65.55,44.16-29.32,.77,.52,11.38-4.99,.23-.75-16.47,18.79-.49-54.72-36.86-.6-20.31-33.92,.95-.32-51.08-10.86-.22-.32,52.49h-43.94l.3,18.08-51.11,36.38c5.45,.21,12.36,.5,15,.68l2.34,.16-.12,17.86Z"/>
        <polygon class="cls-1" points="2286.33 1863.33 2281.33 1863.32 2282.6 820.2 2340.78 820.2 2340.77 822.71 2338.24 1860.8 2333.24 1860.79 2335.76 825.2 2287.6 825.2 2286.33 1863.33"/>
        <rect class="cls-1" x="2246.2" y="819.53" width="5" height="36.09" transform="translate(1371.79 3071.23) rotate(-88.99)"/>
        <rect class="cls-1" x="2373.43" y="822.07" width="5" height="36.09" transform="translate(1494.29 3200.94) rotate(-89)"/>
        <rect class="cls-1" x="2374.28" y="860.05" width="5" height="36.09" transform="translate(1457.14 3239.1) rotate(-89)"/>
        <rect class="cls-1" x="2373.86" y="895.91" width="5" height="36.09" transform="translate(1420.86 3273.92) rotate(-89)"/>
        <rect class="cls-1" x="2374.28" y="931.78" width="5" height="36.09" transform="translate(1385.42 3309.58) rotate(-89)"/>
        <rect class="cls-1" x="2373.01" y="971.03" width="5" height="36.09" transform="translate(1344.9 3346.86) rotate(-88.99)"/>
        <rect class="cls-1" x="2374.28" y="1008.59" width="5" height="36.09" transform="translate(1308.59 3385.02) rotate(-88.99)"/>
        <rect class="cls-1" x="2373.43" y="1042.77" width="5" height="36.09" transform="translate(1273.59 3417.76) rotate(-88.99)"/>
        <rect class="cls-1" x="2374.7" y="1080.75" width="5" height="36.09" transform="translate(1236.86 3456.34) rotate(-88.99)"/>
        <rect class="cls-1" x="2373.43" y="1118.72" width="5" height="36.09" transform="translate(1197.64 3492.38) rotate(-88.99)"/>
        <rect class="cls-1" x="2373.86" y="1153.75" width="5" height="36.09" transform="translate(1163.07 3527.23) rotate(-89)"/>
        <rect class="cls-1" x="2373.43" y="1193.42" width="5" height="36.09" transform="translate(1123 3565.78) rotate(-89)"/>
        <rect class="cls-1" x="2374.28" y="1228.44" width="5" height="36.09" transform="translate(1088.77 3601.02) rotate(-88.99)"/>
        <rect class="cls-1" x="2373.86" y="1264.73" width="5" height="36.09" transform="translate(1052.07 3636.25) rotate(-88.99)"/>
        <rect class="cls-1" x="2373.86" y="1302.71" width="5" height="36.09" transform="translate(1014.1 3673.56) rotate(-88.99)"/>
        <rect class="cls-1" x="2374.28" y="1338.16" width="5" height="36.09" transform="translate(979.1 3708.83) rotate(-89)"/>
        <rect class="cls-1" x="2373.01" y="1377.4" width="5" height="36.09" transform="translate(938.62 3746.12) rotate(-89)"/>
        <rect class="cls-1" x="2374.7" y="1412.85" width="5" height="36.09" transform="translate(904.84 3782.63) rotate(-89)"/>
        <rect class="cls-1" x="2373.43" y="1450.83" width="5" height="36.09" transform="translate(865.62 3818.68) rotate(-89)"/>
        <rect class="cls-1" x="2374.7" y="1486.7" width="5" height="36.09" transform="translate(831 3855.19) rotate(-89)"/>
        <rect class="cls-1" x="2373.43" y="1525.52" width="5" height="36.09" transform="translate(790.93 3892.06) rotate(-89)"/>
        <rect class="cls-1" x="2373.43" y="1562.23" width="5" height="36.09" transform="translate(754.23 3928.13) rotate(-89)"/>
        <rect class="cls-1" x="2373.43" y="1598.1" width="5" height="36.09" transform="translate(718.37 3963.37) rotate(-89)"/>
        <rect class="cls-1" x="2373.85" y="1634.4" width="5" height="36.09" transform="translate(682.5 3999.45) rotate(-89)"/>
        <rect class="cls-1" x="2246.2" y="859.41" width="5" height="36.09" transform="translate(1331.95 3110.42) rotate(-89)"/>
        <rect class="cls-1" x="2246.84" y="896.13" width="5" height="36.09" transform="translate(1295.86 3147.13) rotate(-89)"/>
        <rect class="cls-1" x="2248.73" y="932.21" width="5" height="36.09" transform="translate(1261.66 3184.47) rotate(-89)"/>
        <rect class="cls-1" x="2248.1" y="967.65" width="5" height="36.09" transform="translate(1225.59 3218.67) rotate(-89)"/>
        <rect class="cls-1" x="2248.1" y="1008.16" width="5" height="36.09" transform="translate(1185.09 3258.47) rotate(-89)"/>
        <rect class="cls-1" x="2246.84" y="1044.88" width="5" height="36.09" transform="translate(1147.1 3293.25) rotate(-88.99)"/>
        <rect class="cls-1" x="2246.84" y="1080.96" width="5" height="36.09" transform="translate(1111.03 3328.7) rotate(-88.99)"/>
        <rect class="cls-1" x="2248.73" y="1116.4" width="5" height="36.09" transform="translate(1077.49 3365.44) rotate(-89)"/>
        <rect class="cls-1" x="2248.1" y="1154.38" width="5" height="36.09" transform="translate(1038.86 3402.1) rotate(-88.99)"/>
        <rect class="cls-1" x="2248.73" y="1191.73" width="5" height="36.09" transform="translate(1002.17 3439.45) rotate(-89)"/>
        <rect class="cls-1" x="2248.1" y="1229.71" width="5" height="36.09" transform="translate(963.58 3476.13) rotate(-89)"/>
        <rect class="cls-1" x="2248.1" y="1265.79" width="5" height="36.09" transform="translate(927.5 3511.57) rotate(-89)"/>
        <rect class="cls-1" x="2247.47" y="1301.24" width="5" height="36.09" transform="translate(891.43 3545.76) rotate(-89)"/>
        <rect class="cls-1" x="2249.37" y="1338.58" width="5" height="36.09" transform="translate(855.93 3584.34) rotate(-88.99)"/>
        <rect class="cls-1" x="2247.47" y="1375.93" width="5" height="36.09" transform="translate(816.75 3619.14) rotate(-89)"/>
        <rect class="cls-1" x="2247.47" y="1413.27" width="5" height="36.09" transform="translate(779.42 3655.84) rotate(-89)"/>
        <rect class="cls-1" x="2247.47" y="1447.45" width="5" height="36.09" transform="translate(745.18 3689.38) rotate(-88.99)"/>
        <rect class="cls-1" x="2247.47" y="1486.07" width="5" height="36.09" transform="translate(706.64 3727.36) rotate(-89)"/>
        <rect class="cls-1" x="2247.47" y="1524.05" width="5" height="36.09" transform="translate(668.66 3764.67) rotate(-89)"/>
        <rect class="cls-1" x="2250" y="1560.13" width="5" height="36.09" transform="translate(635.07 3802.65) rotate(-89)"/>
        <rect class="cls-1" x="2247.47" y="1600" width="5" height="36.09" transform="translate(592.72 3839.3) rotate(-89)"/>
        <rect class="cls-1" x="2247.47" y="1635.45" width="5" height="36.09" transform="translate(557.27 3874.12) rotate(-89)"/>
        <rect class="cls-1" x="2247.47" y="1671.53" width="5" height="36.09" transform="translate(521.2 3909.57) rotate(-89)"/>
        <rect class="cls-1" x="2246.83" y="1709.51" width="5" height="36.09" transform="translate(482.6 3946.24) rotate(-89)"/>
        <rect class="cls-1" x="2248.1" y="1744.32" width="5" height="36.09" transform="translate(449.04 3981.72) rotate(-89)"/>
        <rect class="cls-1" x="2248.73" y="1782.94" width="5" height="36.09" transform="translate(410.99 4020.23) rotate(-88.99)"/>
        <rect class="cls-1" x="2248.1" y="1819.65" width="5" height="36.09" transform="translate(373.73 4055.72) rotate(-89)"/>
        <polygon class="cls-1" points="2425.23 1735.93 2424.85 1712.22 2382.13 1712.22 2382.13 1735.04 2377.13 1735.04 2377.13 1707.22 2429.77 1707.22 2430.23 1735.85 2425.23 1735.93"/>
        <path class="cls-1" d="M2377.52,1711.06l-10.31-16.2,2.37-1.28c.23-.12,22.85-12.47,29.62-32.77l1.85-5.54,2.73,5.16c4.29,8.1,17.42,29.55,26.47,31.43l2.59,.54-4.17,15.53-4.83-1.29,2.87-10.7c-9.66-4.21-19.98-20.3-24.77-28.54-7.27,15.56-21.95,25.72-27.67,29.24l7.47,11.73-4.22,2.68Z"/>
        <polygon class="cls-1" points="2391.41 2064.63 2386.41 2064.61 2387.68 1767.99 2403.43 1755.8 2416.73 1768.58 2416.73 1769.64 2417.15 2064.19 2412.15 2064.2 2411.73 1770.71 2403.08 1762.39 2392.67 1770.45 2391.41 2064.63"/>
        <rect class="cls-1" x="2436.7" y="1761.61" width="193.06" height="5" transform="translate(-2.75 3.95) rotate(-.09)"/>
        <polygon class="cls-1" points="2525.67 1760.79 2523.13 1024.22 2523.88 1023.48 2746.27 804.04 2749.78 807.6 2528.14 1026.3 2530.67 1760.77 2525.67 1760.79"/>
        <polygon class="cls-1" points="2748.48 1698.76 2745.96 1167.01 2673.83 1167.01 2671.2 1029.09 2745.94 1029.09 2745.94 704.97 2750.94 704.97 2750.94 1034.09 2676.3 1034.09 2678.74 1162.01 2750.93 1162.01 2753.48 1698.74 2748.48 1698.76"/>
        <polygon class="cls-1" points="2750.01 1656.94 2592.75 1655.66 2592.76 1653.16 2595.31 1210.16 2745.87 1207.59 2745.95 1212.59 2600.28 1215.08 2597.78 1650.7 2750.05 1651.94 2750.01 1656.94"/>
        <rect class="cls-1" x="2729.27" y="1032.43" width="5" height="129.13" transform="translate(-3.57 8.93) rotate(-.19)"/>
        <rect class="cls-1" x="2675.44" y="961.99" width="73.43" height="5"/>
        <rect class="cls-1" x="2637.91" y="1031.16" width="5" height="129.55" transform="translate(-7.08 17.22) rotate(-.37)"/>
        <rect class="cls-1" x="2531.54" y="1094.07" width="134.2" height="5" transform="translate(1485.82 3688.29) rotate(-89.64)"/>
        <rect class="cls-1" x="2722.84" y="1230.97" width="5" height="44.95" transform="translate(1433.65 3960.87) rotate(-89.19)"/>
        <rect class="cls-1" x="2724.11" y="1265.16" width="5" height="44.95" transform="translate(1400.72 3995.84) rotate(-89.19)"/>
        <rect class="cls-1" x="2724.11" y="1306.93" width="5" height="44.95" transform="translate(1358.91 4037.01) rotate(-89.19)"/>
        <rect class="cls-1" x="2724.11" y="1339.21" width="5" height="44.95" transform="translate(1326.63 4068.84) rotate(-89.19)"/>
        <rect class="cls-1" x="2724.11" y="1375.29" width="5" height="44.95" transform="translate(1290.56 4104.41) rotate(-89.19)"/>
        <rect class="cls-1" x="2722.84" y="1412.01" width="5" height="44.95" transform="translate(1252.63 4139.35) rotate(-89.19)"/>
        <rect class="cls-1" x="2722.84" y="1448.09" width="5" height="44.95" transform="translate(1216.55 4174.93) rotate(-89.19)"/>
        <rect class="cls-1" x="2722.84" y="1484.17" width="5" height="44.95" transform="translate(1180.48 4210.5) rotate(-89.19)"/>
        <rect class="cls-1" x="2722.21" y="1522.15" width="5" height="44.95" transform="translate(1141.88 4247.31) rotate(-89.19)"/>
        <rect class="cls-1" x="2722.84" y="1557.59" width="5" height="44.95" transform="translate(1107.06 4282.89) rotate(-89.19)"/>
        <rect class="cls-1" x="2634.51" y="1249.36" width="26.9" height="5"/>
        <rect class="cls-1" x="2634.51" y="1285.76" width="26.9" height="5"/>
        <rect class="cls-1" x="2634.82" y="1325.01" width="26.9" height="5"/>
        <rect class="cls-1" x="2635.77" y="1356.97" width="26.9" height="5"/>
        <rect class="cls-1" x="2636.41" y="1395.58" width="26.9" height="5"/>
        <rect class="cls-1" x="2635.46" y="1431.35" width="26.9" height="5"/>
        <rect class="cls-1" x="2635.03" y="1469.75" width="26.9" height="5"/>
        <rect class="cls-1" x="2634.61" y="1505.2" width="26.9" height="5"/>
        <rect class="cls-1" x="2634.61" y="1541.91" width="26.9" height="5"/>
        <path class="cls-1" d="M2699.53,1627.83h-69.43l1.23-14.5-1.86-3.25c.31-.18,30.69-17.82,34.23-37.11l1.12-6.1,3.42,5.17c10.88,16.41,24.96,34.54,28.73,35.21l2.01,.35,.55,20.22Zm-63.99-5h58.85l-.31-11.45c-7.25-4.1-20.16-22.08-27.02-32.13-5.71,14.59-22.41,26.97-30.57,32.33l-.96,11.24Z"/>
        <rect class="cls-1" x="2640.87" y="1626.91" width="5" height="28.48"/>
        <rect class="cls-1" x="2689.61" y="1624.38" width="5" height="29.43"/>
        <rect class="cls-1" x="2628.52" y="1653.81" width="5" height="368.4" transform="translate(-3.15 4.52) rotate(-.1)"/>
        <rect class="cls-1" x="2531.68" y="1887.38" width="5" height="191.8" transform="translate(542.55 4510.9) rotate(-89.81)"/>
        <rect class="cls-1" x="2701.32" y="1652.54" width="5" height="369.03" transform="translate(-3.15 4.65) rotate(-.1)"/>
        <polygon class="cls-1" points="2545.86 2065.28 2540.86 2065.21 2541.52 2017.81 3079.46 2016.54 3079.46 2063.98 3074.46 2063.98 3074.46 2021.55 2546.45 2022.8 2545.86 2065.28"/>
        <polygon class="cls-1" points="2680.11 2020.33 2677.59 1695.89 2668.51 1685.3 2655.37 1697.91 2656.63 2017.77 2651.63 2017.79 2650.36 1695.79 2668.86 1678.02 2682.57 1694.02 2682.58 1694.93 2685.11 2020.29 2680.11 2020.33"/>
        <rect class="cls-1" x="2731.7" y="1671.21" width="5" height="60.15" transform="translate(975.76 4399.08) rotate(-88.79)"/>
        <rect class="cls-1" x="2704.77" y="1732.33" width="207.62" height="5"/>
        <rect class="cls-1" x="2913.05" y="1655.71" width="5" height="363.34" transform="translate(-6.38 10.17) rotate(-.2)"/>
        <rect class="cls-1" x="2763.67" y="1669.63" width="5" height="62.03"/>
        <path class="cls-1" d="M2849.75,1733.59l-.63-66.13c-1.54-4.42-20.68-15.52-38.2-23.64-15.32,4.97-44.04,31.19-44.33,31.46l-3.38-3.69c1.26-1.15,31.01-28.31,47.22-32.85l.88-.25,.83,.38c9.32,4.28,39.89,18.92,41.9,27.66l.06,.27v.27s.64,66.46,.64,66.46l-5,.05Z"/>
        <rect class="cls-1" x="2757.31" y="1682.96" width="103.18" height="5"/>
        <path class="cls-1" d="M2717.12,1824.07l-2.95-61.97,57.54-.49-54.59,62.46Zm2.29-57.01l2.11,44.38,39.09-44.73-41.21,.35Z"/>
        <path class="cls-1" d="M2901.96,1823.96l-52.15-60.09,52.64-.99-.5,61.08Zm-41.36-55.29l36.47,42.03,.35-42.72-36.82,.69Z"/>
        <path class="cls-1" d="M2915.37,2008.61c-50.67-25.66-105.38-25.64-142.36-21.11-40.12,4.92-68.52,16.03-68.8,16.14l-1.84-4.65c.29-.11,29.28-11.46,70.03-16.46,37.66-4.61,93.44-4.61,145.23,21.61l-2.26,4.46Z"/>
        <path class="cls-1" d="M2892.73,1993.79l-5-.14,1.24-44.58-17.55-19.58,2.05-1.65c18.38-14.82,18.06-38.27,18.06-38.5l-2.5-40.04c-19.92-52.8-73.08-80.48-79.07-83.45-31.61,2.18-78.68,84.91-83.05,92.72,.18,7.63,.74,37.36-1.42,42.94,.06,3.28,11.31,17.12,21.91,28.13l1.7,1.77-18.39,18.39,.92,41.97-5,.11-.97-44.11,16.44-16.44c-2.26-2.42-6.46-6.98-10.5-11.8-11.23-13.42-11.82-17.47-10.78-19.86,1.25-2.85,1.52-23.42,1.06-41.66l-.02-.67,.33-.59c2.12-3.86,52.37-94.62,88.19-95.93l.6-.02,.55,.26c.6,.28,60.68,28.95,82.3,86.84l.13,.35,2.55,40.88c.03,1.11,.41,24.53-17.91,40.91l15.41,17.19-1.29,46.57Z"/>
        <rect class="cls-1" x="2948.5" y="1610.76" width="5" height="89.89" transform="translate(1253.91 4583.1) rotate(-89.19)"/>
        <rect class="cls-1" x="2985.53" y="1655.08" width="5" height="362.7" transform="translate(-3.2 5.22) rotate(-.1)"/>
        <polygon class="cls-1" points="2966.79 2019.06 2961.79 2019.03 2963.68 1697.35 2951.75 1686.98 2941.47 1697.26 2940.21 2018.42 2935.21 2018.4 2936.48 1695.18 2951.51 1680.14 2968.7 1695.09 2966.79 2019.06"/>
        <rect class="cls-1" x="2880.56" y="1671.74" width="5" height="59.08" transform="translate(1140.77 4559.75) rotate(-89.18)"/>
        <polygon class="cls-1" points="2990.3 1739.65 2990.19 1734.65 3025.72 1733.86 3025.72 1290.66 2874.62 1290.66 2874.62 1285.66 3030.72 1285.66 3030.72 1738.75 2990.3 1739.65"/>
        <polygon class="cls-1" points="2975.08 1655.32 2974.7 1629.05 2931.56 1628.29 2931.56 1653.18 2926.56 1653.18 2926.56 1623.2 2979.63 1624.13 2980.08 1655.25 2975.08 1655.32"/>
        <path class="cls-1" d="M2924.24,1627.41l-12.32-13.8,2.1-1.64c.11-.08,10.8-8.49,20.68-17.9,18.47-17.61,16.37-21.73,16.27-21.9l4.26-2.62c8.89,13.92,23.7,35.79,28.07,39l1.41,1.03-5.13,17.71-4.8-1.39,4.2-14.51c-5.87-5.73-17.99-23.83-24.25-33.41-2.12,4.31-6.92,10.5-16.6,19.73-7.42,7.07-15.29,13.58-18.94,16.53l8.79,9.85-3.73,3.33Z"/>
        <polygon class="cls-1" points="2873.81 1700.88 2870.41 1239.22 2945.36 1239.85 2946.58 1111.31 2871.24 1111.31 2871.24 1106.31 2951.62 1106.31 2950.31 1244.89 2875.45 1244.26 2878.81 1700.84 2873.81 1700.88"/>
        <rect class="cls-1" x="2824.4" y="1170.24" width="132.93" height="5" transform="translate(1690.54 4052.26) rotate(-89.45)"/>
        <rect class="cls-1" x="2872.86" y="784.72" width="5" height="322.19" transform="translate(-1.85 5.65) rotate(-.11)"/>
        <polygon class="cls-1" points="3093.77 1765.54 3092.4 1104.36 2875.38 885.65 2878.93 882.13 3097.4 1102.29 3097.4 1103.32 3098.77 1765.53 3093.77 1765.54"/>
        <rect class="cls-1" x="2987.71" y="1762.93" width="192.43" height="5" transform="translate(-7.56 13.28) rotate(-.25)"/>
        <rect class="cls-1" x="2874.41" y="1039.85" width="70.26" height="5"/>
        <rect class="cls-1" x="2918.72" y="1171.82" width="127.23" height="5" transform="translate(1793.47 4150.89) rotate(-89.72)"/>
        <rect class="cls-1" x="3022.56" y="1108.81" width="5" height="131.03"/>
        <path class="cls-1" d="M2903.7,1331.69c-2.04,0-4.16,0-6.28-.02-23.15-.17-23.43-1.02-24.11-3.05l4.74-1.58c-.28-.83-.91-1.22-1.13-1.3,2.51,.89,23.2,1.13,41.76,.85l.07,5c-.08,0-6.91,.1-15.06,.1Z"/>
        <path class="cls-1" d="M2904.97,1370.94c-2.04,0-4.17,0-6.29-.02-23.15-.17-23.43-1.02-24.11-3.05l4.74-1.58c-.28-.83-.91-1.22-1.13-1.29,2.51,.89,23.2,1.13,41.76,.85l.07,5c-.08,0-6.91,.1-15.05,.1Z"/>
        <path class="cls-1" d="M2904.97,1407.02c-2.04,0-4.17,0-6.29-.02-23.15-.17-23.43-1.02-24.11-3.05l4.74-1.58c-.28-.83-.91-1.22-1.13-1.3,2.51,.89,23.2,1.13,41.76,.85l.07,5c-.08,0-6.91,.1-15.05,.1Z"/>
        <rect class="cls-1" x="2875.67" y="1437.36" width="41.78" height="5"/>
        <rect class="cls-1" x="2876.31" y="1475.34" width="41.78" height="5"/>
        <rect class="cls-1" x="2876.31" y="1511.42" width="41.78" height="5"/>
        <rect class="cls-1" x="2878.84" y="1547.5" width="41.78" height="5"/>
        <rect class="cls-1" x="2877.57" y="1583.58" width="41.78" height="5"/>
        <rect class="cls-1" x="2972.87" y="1314.53" width="5" height="31.02" transform="translate(1584.92 4277.66) rotate(-88.83)"/>
        <rect class="cls-1" x="2973.5" y="1351.87" width="5" height="31.02" transform="translate(1548.15 4314.85) rotate(-88.83)"/>
        <rect class="cls-1" x="2972.87" y="1425.3" width="5" height="31.02" transform="translate(1474.17 4386.17) rotate(-88.83)"/>
        <rect class="cls-1" x="2974.77" y="1460.75" width="5" height="31.02" transform="translate(1440.49 4422.74) rotate(-88.83)"/>
        <rect class="cls-1" x="2971.6" y="1497.46" width="5" height="31.02" transform="translate(1400.78 4455.59) rotate(-88.83)"/>
        <rect class="cls-1" x="2974.13" y="1532.27" width="5" height="31.02" transform="translate(1368.45 4492.23) rotate(-88.83)"/>
        <rect class="cls-1" x="2976.03" y="1568.99" width="5" height="31.02" transform="translate(1333.51 4530.04) rotate(-88.83)"/>
        <rect class="cls-1" x="2987.71" y="1980.67" width="192.43" height="5" transform="translate(-8.5 13.28) rotate(-.25)"/>
        <rect class="cls-1" x="3178.06" y="1737.15" width="5" height="329.15" transform="translate(-4.86 8.16) rotate(-.15)"/>
        <rect class="cls-1" x="3209.71" y="1693.67" width="5" height="82.75" transform="translate(1379.68 4892.65) rotate(-88.25)"/>
        <rect class="cls-1" x="3242.62" y="1737.99" width="5" height="327.48" transform="translate(-19.43 33.56) rotate(-.59)"/>
        <polygon class="cls-1" points="3226.59 2068 3225.33 1774.26 3216.16 1761.7 3204.58 1773.62 3203.74 2065.05 3198.74 2065.03 3199.59 1771.58 3216.7 1753.96 3230.32 1772.62 3230.32 1773.43 3231.59 2067.98 3226.59 2068"/>
        <rect class="cls-1" x="3342.43" y="1765" width="5" height="195.39" transform="translate(1446.21 5187.31) rotate(-89.38)"/>
        <rect class="cls-1" x="3342.64" y="1886.33" width="5" height="194.12" transform="translate(1354.49 5324.2) rotate(-89.88)"/>
        <rect class="cls-1" x="3442.44" y="1830.41" width="5" height="235.47" transform="translate(-10.42 18.54) rotate(-.31)"/>
        <rect class="cls-1" x="3436.29" y="1828.33" width="58.66" height="5"/>
        <rect class="cls-1" x="3487.8" y="1832.1" width="5" height="234.63"/>
        <polygon class="cls-1" points="3474.82 2065.89 3474.19 1858.18 3467.63 1849.73 3461.79 1855.79 3462.42 2065.24 3457.42 2065.26 3456.78 1853.78 3468.03 1842.11 3479.19 1856.45 3479.19 1857.31 3479.82 2065.87 3474.82 2065.89"/>
        <polygon class="cls-1" points="3452.29 1830.73 3447.29 1830.73 3447.29 1809.58 3485.79 1809.22 3486.15 1829.73 3481.15 1829.82 3480.88 1814.26 3452.29 1814.53 3452.29 1830.73"/>
        <polygon class="cls-1" points="3452.05 1813.12 3447.53 1810.99 3465.48 1772.94 3485.54 1810.56 3481.13 1812.92 3465.75 1784.08 3452.05 1813.12"/>
        <polygon class="cls-1" points="3245.3 1732.98 3240.3 1732.89 3240.92 1699.55 3214.91 1664.3 3188.35 1698.95 3188.97 1732.89 3183.97 1732.98 3183.32 1697.29 3214.99 1655.98 3245.95 1697.95 3245.3 1732.98"/>
        <rect class="cls-1" x="3209.92" y="1680.39" width="5" height="54.45" transform="translate(1430.54 4879.44) rotate(-88.67)"/>
        <path class="cls-1" d="M3532.74,2063.36l-3.8-1078.6,4.99-.22,24.57,287.23c8.34,4.2,55.34,29.27,112.87,87.45,37.07,37.48,71.24,81.2,101.58,129.95,37.88,60.87,69.85,129.78,95.03,204.85,1.25,2.63,17.71,38.12,29.33,98.98,11.08,58.03,19.96,151.79-.71,268.89l-4.92-.87c20.51-116.25,11.74-209.29,.76-266.87-11.89-62.39-28.86-97.75-29.03-98.1l-.12-.3c-56.69-169.1-137.48-274.32-195.27-332.81-62.61-63.36-112.45-87.06-112.95-87.29l-1.31-.61-.12-1.44-19.48-227.77,3.58,1017.51-5,.02Z"/>
        <path class="cls-1" d="M3820.67,2062.36l-4.97-.55c14.34-129.03,5.71-222.65-4.04-278.47-10.57-60.46-24.71-90.81-24.85-91.11l-.18-.37-.05-.41c-13.67-117.18-76.05-224.1-125.98-293.16-54.14-74.89-105.65-122.58-106.17-123.06l3.39-3.68c.52,.48,52.4,48.52,106.83,123.81,31.98,44.23,58.58,89.09,79.07,133.34,25.58,55.23,41.65,109.65,47.78,161.77,1.75,3.82,14.85,33.65,25.03,91.72,9.85,56.18,18.56,150.39,4.14,280.17Z"/>
        <rect class="cls-1" x="3245.34" y="1698.78" width="729.2" height="5" transform="translate(1903.02 5308.56) rotate(-89.91)"/>
        <polygon class="cls-1" points="3617.31 1655.45 3613.95 1651.75 3771.19 1509.25 3613.94 1509.25 3613.94 1504.25 3784.16 1504.25 3617.31 1655.45"/>
        <polygon class="cls-1" points="3615.24 1849.01 3612.65 1844.73 3856.68 1697.45 3613.1 1697.45 3613.1 1692.45 3874.64 1692.45 3615.24 1849.01"/>
        <polygon class="cls-1" points="3613.44 2039.81 3611.07 2035.41 3887.01 1887.21 3613.06 1883.13 3613.14 1878.13 3906.35 1882.49 3613.44 2039.81"/>
        <rect class="cls-1" x="3805.1" y="2016.12" width="76.38" height="5" transform="translate(-21.85 42.16) rotate(-.63)"/>
        <rect class="cls-1" x="3807.63" y="1975.61" width="76.38" height="5" transform="translate(-21.41 42.19) rotate(-.63)"/>
        <rect class="cls-1" x="3812.28" y="1930.03" width="76.38" height="5" transform="translate(-20.91 42.24) rotate(-.63)"/>
        <rect class="cls-1" x="3804.26" y="1843.53" width="76.38" height="5" transform="translate(-19.96 42.14) rotate(-.63)"/>
        <rect class="cls-1" x="3798.77" y="1802.59" width="76.38" height="5" transform="translate(-19.52 42.08) rotate(-.63)"/>
        <rect class="cls-1" x="3790.33" y="1757.02" width="76.38" height="5" transform="translate(-19.02 41.99) rotate(-.63)"/>
        <rect class="cls-1" x="3783.16" y="1713.55" width="76.38" height="5" transform="translate(-18.51 41.83) rotate(-.63)"/>
        <rect class="cls-1" x="3771.34" y="1671.35" width="76.38" height="5" transform="translate(-18.08 41.77) rotate(-.63)"/>
        <rect class="cls-1" x="3752.78" y="1627.47" width="76.39" height="5" transform="translate(-17.6 41.57) rotate(-.63)"/>
        <rect class="cls-1" x="3746.03" y="1585.8" width="60.14" height="5" transform="translate(-16.53 39.89) rotate(-.6)"/>
        <rect class="cls-1" x="3735.23" y="1543.07" width="50.7" height="5" transform="translate(-72.57 189.95) rotate(-2.87)"/>
        <rect class="cls-1" x="3689.04" y="1455.4" width="43.08" height="5" transform="translate(-60.72 165.17) rotate(-2.53)"/>
        <rect class="cls-1" x="3678.33" y="1399.66" width="5" height="34.19" transform="translate(2196.18 5070.73) rotate(-88.94)"/>
        <rect class="cls-1" x="3645.73" y="1356.94" width="5" height="29.76" transform="translate(2199.13 4990.04) rotate(-88.78)"/>
      </g>
    </g>
  </g>
</svg>